<?xml version="1.0" encoding="utf-8"?>
<svg viewBox="0 0 512 512" width="512" height="512" xmlns="http://www.w3.org/2000/svg">
  <g transform="matrix(0.1, 0, 0, -0.1, 0, 512)" fill="#000000" stroke="none">
    <path d="M253 4530 c-91 -19 -181 -90 -225 -178 l-23 -47 0 -1745 0 -1745 23 -47 c31 -63 91 -121 160 -155 l57 -28 2275 -3 c1673 -2 2291 0 2335 8 33 7 76 20 95 30 51 26 115 93 142 148 l23 47 0 1745 0 1745 -23 47 c-31 63 -96 126 -162 157 l-55 26 -2290 1 c-1259 1 -2309 -2 -2332 -6z m4098 -201 c-66 -55 -1781 -1299 -1791 -1299 -10 0 -1767 1274 -1800 1306 -12 12 245 14 1800 14 1814 -1 1815 -1 1791 -21z m-2291 -1928 c245 -178 457 -329 473 -335 19 -7 35 -7 55 0 15 6 270 188 567 404 297 217 690 503 873 636 l332 243 0 -1290 0 -1289 -1800 0 -1800 0 0 1290 0 1289 428 -311 c235 -172 627 -458 872 -637z" style="fill: rgb(255, 255, 255);"/>
  </g>
</svg>